<?xml version="1.0" encoding="UTF-8"?>
<svg width="600" height="400" viewBox="0 0 600 400" xmlns="http://www.w3.org/2000/svg">
    <!-- 背景のグラデーション -->
    <defs>
        <linearGradient id="bg-gradient" x1="0%" y1="0%" x2="100%" y2="100%">
            <stop offset="0%" style="stop-color:#1E3A8A;stop-opacity:0.1"/>
            <stop offset="100%" style="stop-color:#3B82F6;stop-opacity:0.1"/>
        </linearGradient>
        <filter id="glow">
            <feGaussianBlur stdDeviation="2" result="coloredBlur"/>
            <feMerge>
                <feMergeNode in="coloredBlur"/>
                <feMergeNode in="SourceGraphic"/>
            </feMerge>
        </filter>
    </defs>

    <!-- 背景 -->
    <rect width="600" height="400" fill="url(#bg-gradient)"/>

    <!-- 装飾的な円 -->
    <circle cx="300" cy="200" r="150" fill="none" stroke="#3B82F6" stroke-width="2" opacity="0.2"/>
    <circle cx="300" cy="200" r="120" fill="none" stroke="#1E3A8A" stroke-width="2" opacity="0.2"/>

    <!-- 人間のシルエット -->
    <path d="M250,280 C250,280 270,240 300,240 C330,240 350,280 350,280" 
          fill="none" stroke="#1E3A8A" stroke-width="3" filter="url(#glow)"/>
    <circle cx="300" cy="220" r="20" fill="#1E3A8A" filter="url(#glow)"/>

    <!-- AIのシンボル -->
    <g transform="translate(400,180) scale(0.8)">
        <path d="M0,-30 L25,15 L-25,15 Z" fill="#3B82F6" filter="url(#glow)"/>
        <circle cx="0" cy="0" r="15" fill="none" stroke="#3B82F6" stroke-width="2" filter="url(#glow)"/>
    </g>

    <!-- 接続線 -->
    <path d="M320,240 C340,240 360,220 380,200" 
          fill="none" stroke="#F59E0B" stroke-width="2" stroke-dasharray="5,5" filter="url(#glow)"/>

    <!-- 装飾的な粒子 -->
    <g opacity="0.6">
        <circle cx="200" cy="150" r="2" fill="#F59E0B"/>
        <circle cx="400" cy="250" r="2" fill="#F59E0B"/>
        <circle cx="300" cy="100" r="2" fill="#F59E0B"/>
        <circle cx="150" cy="200" r="2" fill="#F59E0B"/>
        <circle cx="450" cy="150" r="2" fill="#F59E0B"/>
    </g>
</svg> 